#!OML:ASF I:\Actors\actors\Patient Classification 1\Patient 1\Session 1\Subject1.ASF
:FULLY-SPECIFIED
:DEGREES
444
root -0.548747 17.599 7.6938 7.4606 -8.84077 -7.10374
lowerback 3.95489 -0.373825 5.9055
upperback -9.346 0.231964 1.60408
thorax -12.3385 -0.365205 -1.58445
lowerneck -16.5115 -0.408787 3.11746
upperneck 23.7942 -1.09716 -1.50068
head 10.31 -0.416296 -1.20957
rclavicle 3.38431e-014 3.37934e-015
rhumerus -27.4774 54.2769 -93.8072
rradius 72.4247
rwrist -8.35218
rhand 16.8112 -53.6631
rfingers 7.12502
rthumb 41.5537 -78.4009
lclavicle 3.38431e-014 3.37934e-015
lhumerus -33.9319 -39.182 94.1568
lradius 69.4983
lwrist 33.8679
lhand -3.93717 18.9456
lfingers 7.12502
lthumb 21.8143 47.7361
rfemur -5.89559 23.2174 22.5629
rtibia 6.14873
rfoot -10.6694 -18.1445
rtoes -4.65826
lfemur 4.36426 -32.6239 -13.5632
ltibia -1.75826
lfoot -15.6004 47.8105
ltoes 7.10591
445
root -0.56583 17.6141 7.68949 7.34497 -9.69524 -7.3147
lowerback 4.29707 -0.0502921 5.79915
upperback -9.39998 0.705431 1.7595
thorax -12.5791 -0.125062 -1.42432
lowerneck -15.9159 -0.214983 3.43001
upperneck 23.5135 -0.710034 -2.17572
head 10.099 -0.291779 -1.44172
rclavicle -2.11209e-015 -3.39922e-014
rhumerus -23.6895 55.5442 -89.9307
rradius 76.6843
rwrist -6.19489
rhand 20.1738 -51.5301
rfingers 7.12502
rthumb 44.697 -75.1481
lclavicle -2.11209e-015 -3.39922e-014
lhumerus -33.5132 -38.4759 92.795
lradius 72.6437
lwrist 34.3562
lhand -4.7017 17.6131
lfingers 7.12502
lthumb 21.08 46.4873
rfemur -5.72272 23.7809 22.9432
rtibia 6.13982
rfoot -10.5488 -17.8084
rtoes -4.43037
lfemur 5.16331 -32.2244 -13.6291
ltibia -2.28815
lfoot -15.8219 48.1019
ltoes 7.56301
446
root -0.554667 17.6117 7.69197 7.7056 -8.67807 -7.24263
lowerback 3.82615 -0.323699 6.21166
upperback -9.66763 0.344157 1.68977
thorax -12.6342 -0.34878 -1.67191
lowerneck -15.4126 0.0164486 3.84194
upperneck 23.6974 -0.340295 -2.69385
head 10.0779 -0.142213 -1.64496
rclavicle 9.19379e-015 -2.38542e-014
rhumerus -17.8861 56.2484 -84.7063
rradius 82.2384
rwrist -8.76317
rhand 15.886 -51.2646
rfingers 7.12502
rthumb 40.685 -76.2803
lclavicle 9.19379e-015 -2.38542e-014
lhumerus -32.9199 -38.7873 91.4506
lradius 74.8368
lwrist 31.1124
lhand -6.561 15.3139
lfingers 7.12502
lthumb 19.293 44.3769
rfemur -5.85767 23.8721 22.6951
rtibia 5.67159
rfoot -10.6113 -18.817
rtoes -3.43282
lfemur 3.90813 -32.042 -12.8982
ltibia -1.8697
lfoot -15.1906 46.9116
ltoes 6.90212
447
root -0.544094 17.6004 7.67584 8.48569 -9.01364 -7.34363
lowerback 3.38267 -0.0746115 6.45278
upperback -10.0444 0.679538 1.63626
thorax -12.778 -0.226799 -1.90671
lowerneck -15.189 0.167665 4.24945
upperneck 24.1636 -0.132708 -3.03922
head 10.2096 -0.0456266 -1.81472
rclavicle -1.50579e-014 -2.92213e-014
rhumerus -11.0122 55.4642 -78.8262
rradius 88.3062
rwrist -9.51753
rhand 12.2419 -52.0605
rfingers 7.12502
rthumb 37.2495 -78.06
lclavicle -1.50579e-014 -2.92213e-014
lhumerus -31.5378 -39.4147 89.5856
lradius 76.5793
lwrist 28.0856
lhand -7.24393 13.4117
lfingers 7.12502
lthumb 18.6362 42.539
rfemur -7.14339 23.569 22.2377
rtibia 5.94496
rfoot -10.4298 -18.1201
rtoes -3.61229
lfemur 2.94623 -32.3911 -12.3701
ltibia -1.77575
lfoot -16.2457 47.402
ltoes 8.49733
448
root -0.558492 17.6178 7.68351 8.12573 -8.15102 -7.18018
lowerback 3.54751 -0.222525 6.28004
upperback -10.0401 0.475958 1.616
thorax -12.8906 -0.310283 -1.80392
lowerneck -14.9542 0.202347 4.42933
upperneck 24.4307 -0.0494888 -3.2978
head 10.2636 -0.0178301 -1.92904
rclavicle -6.01324e-015 -4.21423e-014
rhumerus -4.17813 52.6486 -73.2637
rradius 94.0106
rwrist -6.31222
rhand 11.1272 -50.3425
rfingers 7.12502
rthumb 36.1947 -76.6109
lclavicle -6.01324e-015 -4.21423e-014
lhumerus -29.6646 -40.1439 87.5875
lradius 78.3057
lwrist 27.3071
lhand -7.90255 12.7126
lfingers 7.12502
lthumb 18.0026 41.8994
rfemur -6.11756 24.2806 22.4529
rtibia 5.24563
rfoot -10.5247 -19.6316
rtoes -2.67691
lfemur 3.27294 -32.881 -12.5574
ltibia -1.97507
lfoot -15.6817 47.094
ltoes 7.98237
449
root -0.567822 17.6272 7.68069 8.13398 -7.59188 -7.09452
lowerback 3.62292 -0.203459 6.17692
upperback -10.15 0.508637 1.64846
thorax -13.0644 -0.287725 -1.71404
lowerneck -14.5533 0.171111 4.36502
upperneck 24.3333 -0.00198378 -3.51089
head 10.1519 -0.0248697 -1.9833
rclavicle -2.01021e-014 2.84262e-014
rhumerus 2.21582 49.062 -68.4632
rradius 99.492
rwrist -3.49056
rhand 8.42764 -49.0001
rfingers 7.12502
rthumb 33.6335 -75.8645
lclavicle -2.01021e-014 2.84262e-014
lhumerus -27.7683 -40.6523 85.6903
lradius 80.2577
lwrist 28.225
lhand -8.86825 12.7815
lfingers 7.12502
lthumb 17.0733 42.0513
rfemur -5.79715 24.7582 22.4772
rtibia 4.83447
rfoot -10.5553 -20.5874
rtoes -2.01631
lfemur 3.23692 -33.4448 -12.5657
ltibia -2.16761
lfoot -15.2145 47.2472
ltoes 7.54536
450
root -0.571873 17.6341 7.67134 8.37748 -7.07983 -7.12011
lowerback 3.70059 -0.162002 6.25989
upperback -10.3109 0.595074 1.69489
thorax -13.3005 -0.260003 -1.71921
lowerneck -14.2573 0.162224 4.24197
upperneck 24.0211 0.0592387 -3.62964
head 9.98474 -0.0208124 -1.9892
rclavicle 5.34234e-015 -7.35503e-015
rhumerus 7.77014 44.7617 -65.1206
rradius 104.697
rwrist -3.02672
rhand 3.98692 -48.1775
rfingers 7.12502
rthumb 29.4032 -75.8712
lclavicle 5.34234e-015 -7.35503e-015
lhumerus -26.0397 -40.6361 83.7737
lradius 82.5258
lwrist 28.8941
lhand -9.6795 12.8421
lfingers 7.12502
lthumb 16.2923 42.1776
rfemur -5.90927 24.9443 22.4367
rtibia 4.58653
rfoot -10.5902 -21.1602
rtoes -1.44654
lfemur 2.88153 -34.0876 -12.3344
ltibia -2.28853
lfoot -14.9668 47.59
ltoes 7.47063
451
root -0.572988 17.6438 7.65746 8.72864 -6.41794 -7.25199
lowerback 3.95017 -0.150196 6.58729
upperback -10.5166 0.676983 1.65956
thorax -13.7043 -0.271518 -1.94883
lowerneck -14.2224 0.14767 4.17433
upperneck 23.7613 0.04931 -3.60195
head 9.88468 -0.0284111 -1.96443
rclavicle -6.21202e-016 4.48259e-014
rhumerus 11.9297 39.5864 -63.7404
rradius 109.856
rwrist -3.70607
rhand 0.377781 -49.2877
rfingers 7.12502
rthumb 25.9522 -77.5359
lclavicle -6.21202e-016 4.48259e-014
lhumerus -24.5102 -40.3727 81.8416
lradius 85.0557
lwrist 29.3154
lhand -10.5365 12.5998
lfingers 7.12502
lthumb 15.4669 42.001
rfemur -6.22611 24.9315 22.4436
rtibia 4.44139
rfoot -10.6286 -21.665
rtoes -0.860258
lfemur 2.23957 -34.7065 -11.8068
ltibia -2.31674
lfoot -14.7581 47.8107
ltoes 7.51315
452
root -0.574897 17.6558 7.63912 9.14261 -5.69897 -7.43138
lowerback 4.23061 -0.107416 6.91427
upperback -10.6746 0.798485 1.56982
thorax -14.0677 -0.267911 -2.24688
lowerneck -14.2285 0.0224279 4.09479
upperneck 23.2201 -0.16259 -3.40273
head 9.68486 -0.112952 -1.89838
rclavicle 3.62782e-015 -5.76476e-015
rhumerus 15.0556 33.9747 -63.5074
rradius 114.472
rwrist -4.00637
rhand -2.80828 -46.3397
rfingers 7.12502
rthumb 22.898 -75.0002
lclavicle 3.62782e-015 -5.76476e-015
lhumerus -23.0728 -40.0552 80.0482
lradius 87.7166
lwrist 30.0527
lhand -11.7854 11.4585
lfingers 7.12502
lthumb 14.2638 40.9487
rfemur -6.73481 24.7423 22.4556
rtibia 4.43476
rfoot -10.6305 -22.0638
rtoes -0.53461
lfemur 1.49424 -35.6323 -11.1603
ltibia -2.32891
lfoot -14.6224 48.2792
ltoes 7.32455
453
root -0.579826 17.6676 7.61685 9.52531 -4.9464 -7.56893
lowerback 4.39489 -0.0255912 6.93823
upperback -10.667 0.929494 1.55272
thorax -14.1507 -0.210505 -2.30158
lowerneck -14.1768 -0.211054 3.80503
upperneck 22.2585 -0.52181 -3.00686
head 9.325 -0.265248 -1.74024
rclavicle -1.37161e-014 1.31198e-014
rhumerus 17.7747 28.9572 -63.3321
rradius 119.074
rwrist -3.19381
rhand -9.04132 -45.2349
rfingers 7.12502
rthumb 16.9067 -74.519
lclavicle -1.37161e-014 1.31198e-014
lhumerus -21.5188 -39.5098 78.5111
lradius 90.3015
lwrist 30.4279
lhand -12.4966 9.92684
lfingers 7.12502
lthumb 13.5784 39.4641
rfemur -7.29739 24.398 22.4203
rtibia 4.51712
rfoot -10.6576 -22.3511
rtoes -0.142416
lfemur 0.750824 -36.6811 -10.5226
ltibia -2.36727
lfoot -14.6443 48.8438
ltoes 7.31438
454
root -0.585492 17.6827 7.58248 10.0039 -4.14621 -8.14702
lowerback 4.71557 0.0809744 7.3143
upperback -10.6899 1.16778 1.65678
thorax -14.3676 -0.136886 -2.43609
lowerneck -14.1453 -0.532717 3.39699
upperneck 21.2806 -0.975862 -2.58596
head 8.9683 -0.470804 -1.56652
rclavicle 3.97569e-015 -2.92213e-014
rhumerus 19.2388 24.9637 -63.4119
rradius 122.687
rwrist -0.211725
rhand -17.0178 -42.0886
rfingers 7.12502
rthumb 9.21817 -71.8671
lclavicle 3.97569e-015 -2.92213e-014
lhumerus -19.9825 -38.8983 77.2075
lradius 92.619
lwrist 30.4308
lhand -12.2912 9.11437
lfingers 7.12502
lthumb 13.7764 38.6382
rfemur -8.06896 24.268 22.8338
rtibia 4.74902
rfoot -10.7669 -22.7394
rtoes 0.795244
lfemur -0.357365 -37.1911 -9.01216
ltibia -2.39642
lfoot -14.4151 48.9797
ltoes 7.22591
455
root -0.593198 17.6962 7.54754 10.3646 -3.34396 -8.63778
lowerback 5.17307 0.148775 7.55869
upperback -10.7204 1.35042 1.72144
thorax -14.6849 -0.0828562 -2.53477
lowerneck -14.0316 -0.864216 3.03665
upperneck 20.3492 -1.45625 -2.11795
head 8.62046 -0.680969 -1.38902
rclavicle 8.05078e-015 2.16675e-014
rhumerus 19.4205 22.1818 -63.6301
rradius 126.321
rwrist 0.711904
rhand -25.6857 -42.7522
rfingers 7.12502
rthumb 0.849294 -72.7303
lclavicle 8.05078e-015 2.16675e-014
lhumerus -18.5803 -38.2147 76.1411
lradius 94.4751
lwrist 30.8548
lhand -11.7488 8.23179
lfingers 7.12502
lthumb 14.2991 37.7194
rfemur -8.65345 24.1824 23.2098
rtibia 4.87864
rfoot -10.8482 -23.1573
rtoes 1.45015
lfemur -1.38381 -37.547 -7.65446
ltibia -2.38439
lfoot -13.7441 48.9623
ltoes 6.46149
